<?xml version="1.0" encoding="UTF-8" standalone="no"?>
<!-- Created with Inkscape (http://www.inkscape.org/) -->

<svg
   version="1.0"
   width="32"
   height="32"
   id="svg2"
   sodipodi:docname="8_ball_icon.svg"
   inkscape:version="1.3.2 (1:1.3.2+202311252150+091e20ef0f)"
   xmlns:inkscape="http://www.inkscape.org/namespaces/inkscape"
   xmlns:sodipodi="http://sodipodi.sourceforge.net/DTD/sodipodi-0.dtd"
   xmlns:xlink="http://www.w3.org/1999/xlink"
   xmlns="http://www.w3.org/2000/svg"
   xmlns:svg="http://www.w3.org/2000/svg">
  <sodipodi:namedview
     id="namedview1"
     pagecolor="#ffffff"
     bordercolor="#666666"
     borderopacity="1.0"
     inkscape:showpageshadow="2"
     inkscape:pageopacity="0.0"
     inkscape:pagecheckerboard="0"
     inkscape:deskcolor="#d1d1d1"
     inkscape:zoom="6.3984375"
     inkscape:cx="38.993895"
     inkscape:cy="-3.6727717"
     inkscape:window-width="1920"
     inkscape:window-height="1005"
     inkscape:window-x="0"
     inkscape:window-y="410"
     inkscape:window-maximized="1"
     inkscape:current-layer="g2171" />
  <defs
     id="defs4">
    <linearGradient
       id="linearGradient4"
       inkscape:collect="always">
      <stop
         style="stop-color:#f9f9f9;stop-opacity:0;"
         offset="0"
         id="stop3" />
      <stop
         style="stop-color:#1d1d1d;stop-opacity:1;"
         offset="1"
         id="stop4" />
    </linearGradient>
    <linearGradient
       id="linearGradient1"
       inkscape:collect="always">
      <stop
         style="stop-color:#f9f9f9;stop-opacity:1;"
         offset="0"
         id="stop1" />
      <stop
         style="stop-color:#f9f9f9;stop-opacity:0;"
         offset="1"
         id="stop2" />
    </linearGradient>
    <linearGradient
       inkscape:collect="always"
       xlink:href="#linearGradient1"
       id="linearGradient2"
       x1="160.76137"
       y1="939.48163"
       x2="173.63831"
       y2="949.97363"
       gradientUnits="userSpaceOnUse"
       gradientTransform="translate(1.1137606,-0.56972346)" />
    <filter
       inkscape:collect="always"
       style="color-interpolation-filters:sRGB"
       id="filter2"
       x="-0.052128914"
       y="-0.062809611"
       width="1.1042578"
       height="1.1256192">
      <feGaussianBlur
         inkscape:collect="always"
         stdDeviation="0.53969653"
         id="feGaussianBlur2" />
    </filter>
    <linearGradient
       inkscape:collect="always"
       xlink:href="#linearGradient4"
       id="linearGradient3"
       x1="-125.43263"
       y1="966.3924"
       x2="-122.05038"
       y2="976.32904"
       gradientUnits="userSpaceOnUse" />
    <filter
       inkscape:collect="always"
       style="color-interpolation-filters:sRGB"
       id="filter4"
       x="-0.06310921"
       y="-0.11126176"
       width="1.1262184"
       height="1.2225235">
      <feGaussianBlur
         inkscape:collect="always"
         stdDeviation="0.39984171"
         id="feGaussianBlur4" />
    </filter>
  </defs>
  <g
     transform="translate(-158.23886,-935.57002)"
     id="layer1">
    <g
       id="g2171">
      <path
         d="M 411.42102 938.01221 A 91.061981 91.061981 0 1 1  229.29706,938.01221 A 91.061981 91.061981 0 1 1  411.42102 938.01221 z"
         style="fill:#000000;fill-opacity:1;stroke:none;stroke-width:1;stroke-linecap:butt;stroke-linejoin:miter;stroke-miterlimit:4;stroke-dasharray:none;stroke-dashoffset:0;stroke-opacity:1"
         id="path2162"
         transform="matrix(0.1757045,0,0,0.1757045,117.95033,786.75706)" />
      <path
         d="m 217.95163,911.14148 a 38.51474,38.51474 0 1 1 -77.02948,0 38.51474,38.51474 0 1 1 77.02948,0 z"
         transform="matrix(0.1757045,0,0,0.1757045,143.02574,786.12755)"
         style="display:inline;fill:#ffffff;fill-opacity:1;stroke:none;stroke-width:1;stroke-linecap:butt;stroke-linejoin:miter;stroke-miterlimit:4;stroke-dasharray:none;stroke-dashoffset:0;stroke-opacity:1"
         id="path3136" />
      <path
         d="m 74.226563,890.49332 c -2.625011,-0.96091 -4.570321,-2.332 -5.835938,-4.11328 -1.265631,-1.78122 -1.898442,-3.91403 -1.898437,-6.39844 -5e-6,-3.74995 1.347649,-6.9023 4.042968,-9.45703 2.695301,-2.55464 6.281235,-3.83198 10.757813,-3.83203 4.499975,5e-5 8.121066,1.30669 10.863281,3.91992 2.742154,2.61333 4.113246,5.79497 4.113281,9.54492 -3.5e-5,2.39066 -0.626987,4.47074 -1.880859,6.24024 -1.253938,1.76956 -3.158233,3.13479 -5.712891,4.0957 3.164032,1.03128 5.572233,2.69534 7.22461,4.99219 1.652307,2.29689 2.478478,5.03908 2.478515,8.22656 -3.7e-5,4.40626 -1.558629,8.10938 -4.675781,11.10938 -3.117217,3 -7.218775,4.5 -12.304687,4.5 -5.085953,0 -9.187511,-1.50586 -12.304688,-4.51758 -3.117192,-3.01171 -4.675784,-6.76757 -4.675781,-11.26758 -3e-6,-3.35154 0.849605,-6.15818 2.548828,-8.41992 1.699211,-2.26169 4.119131,-3.80271 7.259766,-4.62305 z m -1.265625,-10.72265 c -1.2e-5,2.43753 0.785144,4.42972 2.355468,5.97656 1.570297,1.5469 3.609358,2.32034 6.117188,2.32031 2.437477,3e-5 4.435522,-0.76755 5.99414,-2.30273 1.558567,-1.53513 2.337863,-3.41598 2.337891,-5.64258 -2.8e-5,-2.32027 -0.802762,-4.27144 -2.408203,-5.85352 -1.605493,-1.58198 -3.603538,-2.373 -5.994141,-2.37304 -2.41408,4e-5 -4.417984,0.77348 -6.011718,2.32031 -1.593763,1.54692 -2.390637,3.39848 -2.390625,5.55469 z m -2.039063,23.80078 c -9e-6,1.8047 0.427725,3.55079 1.283203,5.23828 0.855457,1.68751 2.12694,2.99415 3.814453,3.91992 1.687484,0.92579 3.503888,1.38868 5.449219,1.38867 3.023415,10e-6 5.519506,-0.97265 7.488281,-2.91797 1.968721,-1.9453 2.953095,-4.41795 2.953125,-7.41797 -3e-5,-3.04685 -1.013701,-5.56638 -3.041015,-7.55859 -2.027369,-1.99216 -4.564476,-2.98826 -7.611328,-2.98828 -2.97658,2e-5 -5.443374,0.9844 -7.400391,2.95312 -1.957042,1.96877 -2.935556,4.42971 -2.935547,7.38282 z"
         transform="matrix(0.1739794,0.0245607,-0.0245607,0.1739794,182.20067,788.39671)"
         style="font-size:72px;display:inline"
         id="flowRoot4206" />
      <path
         d="m 186.25647,946.32946 a 12.423735,10.311094 0 1 1 -24.84747,0 12.423735,10.311094 0 1 1 24.84747,0 z"
         style="fill:url(#linearGradient2);fill-opacity:1;stroke:none;stroke-width:0.124291;stroke-linecap:butt;stroke-linejoin:miter;stroke-miterlimit:4;stroke-dasharray:none;stroke-dashoffset:0;stroke-opacity:1;filter:url(#filter2)"
         id="path1"
         transform="matrix(1.0274427,0,0,1.0318854,-5.1469224,-29.803977)" />
      <path
         id="path2"
         style="fill:#f9f9f9;fill-opacity:0.78273082;stroke-width:0.710209;stroke-linecap:round;stroke-linejoin:bevel"
         transform="matrix(0.93998528,-0.34121499,0.45458015,0.89070584,0,0)"
         d="m -273.84237,946.46826 c 0,0.18677 -0.85157,-0.17814 -2.16434,-0.12234 -1.12221,0.0476 -2.15432,0.46133 -2.7211,0.47244 -1.32773,0.026 -3.39514,0.30984 -3.39514,0.12271 0,-0.23337 2.97263,-1.07428 4.79607,-1.07428 1.82343,0 3.48451,0.36807 3.48451,0.60144 z"
         sodipodi:nodetypes="csscscc" />
      <ellipse
         style="mix-blend-mode:normal;fill:url(#linearGradient3);fill-opacity:1;stroke-width:0.680281;stroke-linecap:round;stroke-linejoin:bevel;filter:url(#filter4)"
         id="path3"
         cx="-123.35236"
         cy="969.72711"
         rx="7.6028528"
         ry="4.3124433"
         transform="matrix(1.0862255,-0.43393683,0.47348327,0.88018201,-146.74622,54.062282)" />
    </g>
  </g>
</svg>
