<svg xmlns="http://www.w3.org/2000/svg" viewBox="0 0 512 512">
  <circle cx="256" cy="256" r="256" fill="#000"/>
  <circle cx="256" cy="256" r="100" fill="#fff"/>
  <path d="M256 200c-15 0-25 10-25 25 0 8 4 15 10 20l15 15-15 15c-6 5-10 12-10 20 0 15 10 25 25 25s25-10 25-25c0-8-4-15-10-20l-15-15 15-15c6-5 10-12 10-20 0-15-10-25-25-25z" fill="#000"/>
  <text x="50%" y="54%" dominant-baseline="middle" text-anchor="middle" font-family="Arial" font-weight="bold" font-size="140" fill="#000">8</text>
</svg>
